PathFileType	4	(X/Y/Z)	C:\Users\WrightLab\Desktop\Jo\P5V47.trc
DataRate	CameraRate	NumFrames	NumMarkers	Units	OrigDataRate	OrigDataStartFrame	OrigNumFrames
100.00	100.00	       6	19	mm	100.00	447	       892
Frame#	Time	Headset_Front			Headset_Back			Headset_Left			Headset_Right			Left_Shoulder			Right_Shoulder			Sternum			C7			Left Elbow			Right Elbow			Left Wrist			Right Wrist			Left ASIS			Right ASIS			S2			Left Knee			Right Knee			Left Ankle			Right Ankle			
		X1	Y1	Z1	X2	Y2	Z2	X3	Y3	Z3	X4	Y4	Z4	X5	Y5	Z5	X6	Y6	Z6	X7	Y7	Z7	X8	Y8	Z8	X9	Y9	Z9	X10	Y10	Z10	X11	Y11	Z11	X12	Y12	Z12	X13	Y13	Z13	X14	Y14	Z14	X15	Y15	Z15	X16	Y16	Z16	X17	Y17	Z17	X18	Y18	Z18	X19	Y19	Z19	

447	4.460	-602.65704	1506.69861	-224.37450				-570.33356	1621.12842	-397.92123	-733.50500	1583.03345	-236.30994	-539.55090	1473.12231	-532.29858	-909.64691	1448.94592	-339.44592	-701.33105	1306.46277	-350.12927	-788.55688	1492.74951	-546.80768	-479.42923	1168.55078	-546.34064	-996.21265	1165.96582	-319.50955	-526.90009	1061.71875	-344.94333	-863.66547	1031.20264	-165.69827	-581.42566	905.93201	-377.05038	-835.03302	943.69702	-263.75128	-818.96033	941.33154	-579.20349	-588.02356	466.12338	-415.08981	-821.35004	518.65723	-192.52315	-723.76862	76.68090	-611.66754	-873.31348	104.13110	-140.40523	
448	4.470	-601.91595	1505.78503	-217.64496				-570.62128	1620.39941	-392.70404	-732.13361	1581.30078	-228.59024	-541.43921	1472.45630	-527.59174	-908.04370	1447.79565	-330.03552	-700.34845	1305.13074	-342.34045	-790.61902	1491.90186	-539.08020	-480.90976	1168.33435	-542.89063	-994.53949	1164.41235	-308.39426	-526.15930	1062.75134	-340.57730	-859.92908	1031.09338	-157.09810	-580.45343	904.98260	-371.92377	-831.80872	942.81622	-255.43523	-821.01654	940.72351	-572.09515	-591.32916	465.52795	-410.93256	-819.08508	517.64331	-185.45358	-724.01379	76.97130	-611.71710	-867.80829	101.50954	-131.48082	
449	4.480	-600.29688	1505.15979	-212.25227				-570.85754	1618.83167	-387.79807	-731.83185	1581.16602	-222.22659	-543.36304	1471.81262	-523.14893	-907.08234	1446.57776	-320.33746	-698.82971	1304.10315	-337.41797	-792.70459	1490.73145	-530.82056	-482.84641	1167.79651	-539.84418	-992.81262	1163.93787	-298.15042	-525.11774	1063.30029	-336.77838	-855.63214	1030.29822	-148.31129	-580.07648	904.69641	-367.10501	-829.56378	941.75153	-247.99852	-822.79047	939.05780	-564.08521	-593.77405	464.87479	-406.90842	-817.70728	515.81360	-177.90057	-723.83966	77.75101	-610.59113	-863.77679	99.05278	-125.17136	
450	4.490	-599.22919	1502.73779	-205.95290				-571.18628	1617.43396	-381.47137	-729.22565	1579.24182	-214.32162	-545.71765	1470.99683	-518.72113	-907.39075	1446.39258	-310.94739	-698.26874	1302.87415	-329.99463	-794.83295	1489.37891	-522.82977	-484.14658	1167.70654	-537.39642	-991.83728	1162.58081	-287.82974	-523.67590	1063.94312	-332.75964	-851.84906	1029.28967	-139.21881	-578.46979	904.17731	-362.43973	-826.51538	939.96155	-236.31848	-824.51508	938.10260	-556.55920	-596.48126	463.60608	-403.57996	-815.94739	513.01166	-169.43806	-724.29156	79.66987	-609.22522	-862.17438	97.26761	-121.37811	
451	4.500	-597.62531	1501.61414	-201.03603				-571.64368	1616.86841	-376.15158	-728.42151	1578.48682	-208.01593	-548.02557	1470.30457	-514.47028	-906.75415	1445.03076	-301.96738	-697.26746	1301.87598	-323.78281	-797.16040	1487.83862	-515.18750	-486.11380	1167.25769	-534.99426	-989.86841	1161.35535	-276.68091	-522.64905	1065.11108	-329.86053	-847.05688	1029.03064	-130.34769	-578.50037	903.33026	-357.42352	-823.83429	939.15149	-227.95827	-826.20886	937.34003	-548.26166	-598.22418	463.18457	-399.23941	-814.22693	509.77133	-163.10040	-723.36938	80.47742	-608.85083	-860.41931	95.12759	-120.59915	
452	4.510	-596.27130	1500.35962	-195.91867				-571.93097	1615.23584	-370.34927	-726.26593	1576.62610	-200.71642	-550.19354	1468.75037	-510.03467	-905.89996	1443.74646	-292.60660	-695.64978	1300.96472	-316.78442	-799.42389	1486.52795	-507.40375	-487.66568	1166.58960	-531.36401	-987.91895	1159.57507	-265.95367	-522.33026	1065.68445	-326.10278	-842.42126	1027.93335	-121.82764	-578.32520	901.84631	-351.87119				-827.12170	934.57971	-539.99652	-600.90417	460.78098	-395.33578	-812.75354	506.07892	-155.89253	-723.17993	84.07889	-607.88885	-861.94507	93.44041	-124.69522	
